<svg xmlns="http://www.w3.org/2000/svg" data-name="filled outline" viewBox="0 0 64 64" width="288" height="288">
  <rect width="47.97" height="24.78" x="8.02" y="35.73" fill="#16697a" stroke="#333333" stroke-linecap="round" stroke-linejoin="round" stroke-width="2" rx="1.66" ry="1.66" class="color83beca svgShape colorStroke505151 svgStroke"></rect>
  <line x1="14.01" x2="14.01" y1="42.75" y2="53.68" fill="none" stroke="#333333" stroke-linecap="round" stroke-linejoin="round" stroke-width="2" class="colorStroke505151 svgStroke"></line>
  <line x1="20.01" x2="20.01" y1="42.75" y2="53.68" fill="none" stroke="#333333" stroke-linecap="round" stroke-linejoin="round" stroke-width="2" class="colorStroke505151 svgStroke"></line>
  <line x1="26" x2="26" y1="42.75" y2="53.68" fill="none" stroke="#333333" stroke-linecap="round" stroke-linejoin="round" stroke-width="2" class="colorStroke505151 svgStroke"></line>
  <line x1="32" x2="32" y1="42.75" y2="53.68" fill="none" stroke="#333333" stroke-linecap="round" stroke-linejoin="round" stroke-width="2" class="colorStroke505151 svgStroke"></line>
  <line x1="38" x2="38" y1="42.75" y2="53.68" fill="none" stroke="#333333" stroke-linecap="round" stroke-linejoin="round" stroke-width="2" class="colorStroke505151 svgStroke"></line>
  <line x1="43.99" x2="43.99" y1="42.75" y2="53.68" fill="none" stroke="#333333" stroke-linecap="round" stroke-linejoin="round" stroke-width="2" class="colorStroke505151 svgStroke"></line>
  <line x1="49.99" x2="49.99" y1="42.75" y2="53.68" fill="none" stroke="#333333" stroke-linecap="round" stroke-linejoin="round" stroke-width="2" class="colorStroke505151 svgStroke"></line>
  <rect width="53.66" height="11.57" x="5.17" y="25.6" fill="#ffc85c" stroke="#333333" stroke-linecap="round" stroke-linejoin="round" stroke-width="2" rx="1.66" ry="1.66" class="colorfff570 svgShape colorStroke505151 svgStroke"></rect>
  <path fill="#16697a" stroke="#333333" stroke-linecap="round" stroke-linejoin="round" stroke-width="2" d="M37.09,27.43,35.82,3.5H28.18L26.9,27.27H27a1,1,0,0,0,0,.16,5.06,5.06,0,0,0,10.12,0h0Z" class="color83beca svgShape colorStroke505151 svgStroke"></path>
</svg>